<mxfile host="app.diagrams.net" modified="2021-10-04T11:03:59.956Z" agent="5.0 (Windows NT 10.0; Win64; x64) AppleWebKit/537.36 (KHTML, like Gecko) Chrome/94.0.4606.61 Safari/537.36" etag="liwiIvn6RniOS_Gf4SoW" version="15.4.1" type="github">
  <diagram id="rgyK8mg88xuO2XdMJRPq" name="Page-1">
    <mxGraphModel dx="942" dy="674" grid="1" gridSize="10" guides="1" tooltips="1" connect="1" arrows="1" fold="1" page="1" pageScale="1" pageWidth="827" pageHeight="1169" math="0" shadow="0">
      <root>
        <mxCell id="0" />
        <mxCell id="1" parent="0" />
        <mxCell id="JeRUma0UxZ9L4VUVmETL-1" value="LogIn/Sign Up page&lt;br&gt;&lt;br&gt;&lt;br&gt;&lt;br&gt;&lt;br&gt;&lt;br&gt;&lt;br&gt;&lt;br&gt;&lt;br&gt;" style="rounded=0;whiteSpace=wrap;html=1;" parent="1" vertex="1">
          <mxGeometry x="300" y="40" width="240" height="180" as="geometry" />
        </mxCell>
        <mxCell id="JeRUma0UxZ9L4VUVmETL-2" value="" style="rounded=0;whiteSpace=wrap;html=1;" parent="1" vertex="1">
          <mxGeometry x="565" y="230" width="230" height="180" as="geometry" />
        </mxCell>
        <mxCell id="JeRUma0UxZ9L4VUVmETL-3" value="" style="rounded=0;whiteSpace=wrap;html=1;" parent="1" vertex="1">
          <mxGeometry x="120" y="270" width="220" height="220" as="geometry" />
        </mxCell>
        <mxCell id="JeRUma0UxZ9L4VUVmETL-4" value="https://www.themoviedb.org/&lt;br&gt;&lt;br&gt;Select From Here to My DB(Movies)" style="rounded=0;whiteSpace=wrap;html=1;" parent="1" vertex="1">
          <mxGeometry x="410" y="505" width="220" height="160" as="geometry" />
        </mxCell>
        <mxCell id="JeRUma0UxZ9L4VUVmETL-5" value="Password" style="text;html=1;strokeColor=none;fillColor=none;align=center;verticalAlign=middle;whiteSpace=wrap;rounded=0;" parent="1" vertex="1">
          <mxGeometry x="310" y="115" width="60" height="30" as="geometry" />
        </mxCell>
        <mxCell id="JeRUma0UxZ9L4VUVmETL-6" value="" style="rounded=1;whiteSpace=wrap;html=1;" parent="1" vertex="1">
          <mxGeometry x="370" y="90" width="120" height="20" as="geometry" />
        </mxCell>
        <mxCell id="JeRUma0UxZ9L4VUVmETL-7" value="" style="rounded=1;whiteSpace=wrap;html=1;" parent="1" vertex="1">
          <mxGeometry x="370" y="120" width="120" height="20" as="geometry" />
        </mxCell>
        <mxCell id="JeRUma0UxZ9L4VUVmETL-8" value="Username" style="text;html=1;strokeColor=none;fillColor=none;align=center;verticalAlign=middle;whiteSpace=wrap;rounded=0;" parent="1" vertex="1">
          <mxGeometry x="310" y="85" width="60" height="30" as="geometry" />
        </mxCell>
        <mxCell id="JeRUma0UxZ9L4VUVmETL-10" value="" style="rounded=1;whiteSpace=wrap;html=1;absoluteArcSize=1;arcSize=14;strokeWidth=2;" parent="1" vertex="1">
          <mxGeometry x="320" y="150" width="200" height="20" as="geometry" />
        </mxCell>
        <mxCell id="JeRUma0UxZ9L4VUVmETL-11" value="Log In" style="text;html=1;strokeColor=none;fillColor=none;align=center;verticalAlign=middle;whiteSpace=wrap;rounded=0;" parent="1" vertex="1">
          <mxGeometry x="390" y="145" width="60" height="30" as="geometry" />
        </mxCell>
        <mxCell id="JeRUma0UxZ9L4VUVmETL-12" value="Or" style="text;html=1;strokeColor=none;fillColor=none;align=center;verticalAlign=middle;whiteSpace=wrap;rounded=0;" parent="1" vertex="1">
          <mxGeometry x="380" y="170" width="60" height="20" as="geometry" />
        </mxCell>
        <mxCell id="JeRUma0UxZ9L4VUVmETL-14" value="" style="rounded=1;whiteSpace=wrap;html=1;absoluteArcSize=1;arcSize=14;strokeWidth=2;" parent="1" vertex="1">
          <mxGeometry x="320" y="190" width="200" height="20" as="geometry" />
        </mxCell>
        <mxCell id="JeRUma0UxZ9L4VUVmETL-15" value="Create New Account" style="text;html=1;strokeColor=none;fillColor=none;align=center;verticalAlign=middle;whiteSpace=wrap;rounded=0;" parent="1" vertex="1">
          <mxGeometry x="340" y="185" width="170" height="30" as="geometry" />
        </mxCell>
        <mxCell id="JeRUma0UxZ9L4VUVmETL-17" value="Sign Up" style="text;html=1;strokeColor=none;fillColor=none;align=center;verticalAlign=middle;whiteSpace=wrap;rounded=0;" parent="1" vertex="1">
          <mxGeometry x="650" y="250" width="60" height="30" as="geometry" />
        </mxCell>
        <mxCell id="JeRUma0UxZ9L4VUVmETL-19" value="" style="rounded=1;whiteSpace=wrap;html=1;" parent="1" vertex="1">
          <mxGeometry x="660" y="290" width="120" height="20" as="geometry" />
        </mxCell>
        <mxCell id="JeRUma0UxZ9L4VUVmETL-20" value="Username" style="text;html=1;strokeColor=none;fillColor=none;align=center;verticalAlign=middle;whiteSpace=wrap;rounded=0;" parent="1" vertex="1">
          <mxGeometry x="600" y="285" width="60" height="30" as="geometry" />
        </mxCell>
        <mxCell id="JeRUma0UxZ9L4VUVmETL-21" value="" style="rounded=1;whiteSpace=wrap;html=1;" parent="1" vertex="1">
          <mxGeometry x="660" y="320" width="120" height="20" as="geometry" />
        </mxCell>
        <mxCell id="JeRUma0UxZ9L4VUVmETL-22" value="Password" style="text;html=1;strokeColor=none;fillColor=none;align=center;verticalAlign=middle;whiteSpace=wrap;rounded=0;" parent="1" vertex="1">
          <mxGeometry x="600" y="315" width="60" height="30" as="geometry" />
        </mxCell>
        <mxCell id="JeRUma0UxZ9L4VUVmETL-23" value="Sign UP" style="rounded=1;whiteSpace=wrap;html=1;absoluteArcSize=1;arcSize=14;strokeWidth=2;" parent="1" vertex="1">
          <mxGeometry x="595" y="390" width="200" height="20" as="geometry" />
        </mxCell>
        <mxCell id="JeRUma0UxZ9L4VUVmETL-25" value="Confirm&lt;br&gt;Password" style="text;whiteSpace=wrap;html=1;" parent="1" vertex="1">
          <mxGeometry x="599" y="340" width="80" height="30" as="geometry" />
        </mxCell>
        <mxCell id="JeRUma0UxZ9L4VUVmETL-26" value="" style="rounded=1;whiteSpace=wrap;html=1;" parent="1" vertex="1">
          <mxGeometry x="660" y="350" width="120" height="20" as="geometry" />
        </mxCell>
        <mxCell id="hGfINej10yP00hQ_XD_E-1" value="" style="endArrow=classic;html=1;rounded=0;edgeStyle=orthogonalEdgeStyle;" edge="1" parent="1">
          <mxGeometry width="50" height="50" relative="1" as="geometry">
            <mxPoint x="540" y="120" as="sourcePoint" />
            <mxPoint x="650" y="230" as="targetPoint" />
            <Array as="points">
              <mxPoint x="650" y="120" />
            </Array>
          </mxGeometry>
        </mxCell>
        <mxCell id="hGfINej10yP00hQ_XD_E-79" value="Sign UP" style="edgeLabel;html=1;align=center;verticalAlign=middle;resizable=0;points=[];fontSize=14;fontFamily=Verdana;" vertex="1" connectable="0" parent="hGfINej10yP00hQ_XD_E-1">
          <mxGeometry x="0.3515" y="-1" relative="1" as="geometry">
            <mxPoint as="offset" />
          </mxGeometry>
        </mxCell>
        <mxCell id="hGfINej10yP00hQ_XD_E-2" value="My Movies" style="rounded=1;whiteSpace=wrap;html=1;absoluteArcSize=1;arcSize=14;strokeWidth=2;" vertex="1" parent="1">
          <mxGeometry x="130" y="295" width="100" height="20" as="geometry" />
        </mxCell>
        <mxCell id="hGfINej10yP00hQ_XD_E-3" value="Log Out" style="rounded=1;whiteSpace=wrap;html=1;absoluteArcSize=1;arcSize=15;strokeWidth=2;" vertex="1" parent="1">
          <mxGeometry x="240" y="295" width="90" height="20" as="geometry" />
        </mxCell>
        <mxCell id="hGfINej10yP00hQ_XD_E-4" value="Button" style="rounded=1;whiteSpace=wrap;html=1;absoluteArcSize=1;arcSize=14;strokeWidth=2;" vertex="1" parent="1">
          <mxGeometry x="20" y="60" width="100" height="20" as="geometry" />
        </mxCell>
        <mxCell id="hGfINej10yP00hQ_XD_E-7" value="Input Field" style="rounded=1;whiteSpace=wrap;html=1;" vertex="1" parent="1">
          <mxGeometry x="20" y="30" width="120" height="20" as="geometry" />
        </mxCell>
        <mxCell id="hGfINej10yP00hQ_XD_E-12" value="Add Movies" style="rounded=1;whiteSpace=wrap;html=1;absoluteArcSize=1;arcSize=14;strokeWidth=2;" vertex="1" parent="1">
          <mxGeometry x="130" y="460" width="100" height="20" as="geometry" />
        </mxCell>
        <mxCell id="hGfINej10yP00hQ_XD_E-13" value="" style="rounded=0;whiteSpace=wrap;html=1;" vertex="1" parent="1">
          <mxGeometry x="130" y="330" width="180" height="100" as="geometry" />
        </mxCell>
        <mxCell id="hGfINej10yP00hQ_XD_E-14" value="&lt;ul&gt;&lt;li&gt;&lt;b&gt;Value 1&lt;/b&gt;&lt;/li&gt;&lt;li&gt;&lt;b&gt;Value 2&lt;/b&gt;&lt;/li&gt;&lt;li&gt;&lt;b&gt;Value 3&lt;/b&gt;&lt;/li&gt;&lt;/ul&gt;" style="text;strokeColor=none;fillColor=none;html=1;whiteSpace=wrap;verticalAlign=middle;overflow=hidden;" vertex="1" parent="1">
          <mxGeometry x="110" y="350" width="100" height="80" as="geometry" />
        </mxCell>
        <mxCell id="hGfINej10yP00hQ_XD_E-21" value="Play(insert link)&lt;br&gt;&lt;br&gt;&lt;br&gt;X- delete" style="html=1;whiteSpace=wrap;container=1;recursiveResize=0;collapsible=0;" vertex="1" parent="1">
          <mxGeometry x="20" y="90" width="150" height="60" as="geometry" />
        </mxCell>
        <mxCell id="hGfINej10yP00hQ_XD_E-22" value="" style="triangle;html=1;whiteSpace=wrap;" vertex="1" parent="hGfINej10yP00hQ_XD_E-21">
          <mxGeometry x="20" y="5" width="10" height="15" as="geometry" />
        </mxCell>
        <mxCell id="hGfINej10yP00hQ_XD_E-24" value="&lt;span style=&quot;white-space: pre&quot;&gt;	&lt;/span&gt;X" style="html=1;whiteSpace=wrap;container=1;recursiveResize=0;collapsible=0;strokeColor=#FFFFFF;" vertex="1" parent="1">
          <mxGeometry x="210" y="360" width="90" height="20" as="geometry" />
        </mxCell>
        <mxCell id="hGfINej10yP00hQ_XD_E-25" value="" style="triangle;html=1;whiteSpace=wrap;" vertex="1" parent="hGfINej10yP00hQ_XD_E-24">
          <mxGeometry x="10" y="5" width="10" height="15" as="geometry" />
        </mxCell>
        <mxCell id="hGfINej10yP00hQ_XD_E-26" value="&lt;span style=&quot;white-space: pre&quot;&gt;	&lt;/span&gt;X" style="html=1;whiteSpace=wrap;container=1;recursiveResize=0;collapsible=0;strokeColor=#FFFFFF;" vertex="1" parent="1">
          <mxGeometry x="210" y="380" width="90" height="20" as="geometry" />
        </mxCell>
        <mxCell id="hGfINej10yP00hQ_XD_E-27" value="" style="triangle;html=1;whiteSpace=wrap;" vertex="1" parent="hGfINej10yP00hQ_XD_E-26">
          <mxGeometry x="10" y="5" width="10" height="15" as="geometry" />
        </mxCell>
        <mxCell id="hGfINej10yP00hQ_XD_E-32" value="&lt;span style=&quot;white-space: pre&quot;&gt;	&lt;/span&gt;X" style="html=1;whiteSpace=wrap;container=1;recursiveResize=0;collapsible=0;strokeColor=#FFFFFF;" vertex="1" parent="1">
          <mxGeometry x="210" y="400" width="90" height="20" as="geometry" />
        </mxCell>
        <mxCell id="hGfINej10yP00hQ_XD_E-33" value="" style="triangle;html=1;whiteSpace=wrap;" vertex="1" parent="hGfINej10yP00hQ_XD_E-32">
          <mxGeometry x="10" y="5" width="10" height="15" as="geometry" />
        </mxCell>
        <mxCell id="hGfINej10yP00hQ_XD_E-37" value="" style="endArrow=classic;html=1;rounded=0;fontFamily=Verdana;fontSize=14;edgeStyle=orthogonalEdgeStyle;entryX=0.588;entryY=-0.012;entryDx=0;entryDy=0;entryPerimeter=0;" edge="1" parent="1" target="JeRUma0UxZ9L4VUVmETL-3">
          <mxGeometry width="50" height="50" relative="1" as="geometry">
            <mxPoint x="300" y="160" as="sourcePoint" />
            <mxPoint x="250" y="210" as="targetPoint" />
            <Array as="points">
              <mxPoint x="300" y="110" />
              <mxPoint x="249" y="110" />
            </Array>
          </mxGeometry>
        </mxCell>
        <mxCell id="hGfINej10yP00hQ_XD_E-78" value="User&lt;br&gt;Comes&lt;br&gt;to&lt;br&gt;Main&lt;br&gt;Page" style="edgeLabel;html=1;align=center;verticalAlign=middle;resizable=0;points=[];fontSize=14;fontFamily=Verdana;" vertex="1" connectable="0" parent="hGfINej10yP00hQ_XD_E-37">
          <mxGeometry x="0.0627" y="-1" relative="1" as="geometry">
            <mxPoint y="34" as="offset" />
          </mxGeometry>
        </mxCell>
        <mxCell id="hGfINej10yP00hQ_XD_E-44" value="" style="endArrow=classic;html=1;rounded=0;fontFamily=Verdana;fontSize=14;edgeStyle=orthogonalEdgeStyle;exitX=1;exitY=0.5;exitDx=0;exitDy=0;startArrow=none;" edge="1" parent="1" source="hGfINej10yP00hQ_XD_E-67" target="JeRUma0UxZ9L4VUVmETL-4">
          <mxGeometry width="50" height="50" relative="1" as="geometry">
            <mxPoint x="240" y="470" as="sourcePoint" />
            <mxPoint x="90" y="520" as="targetPoint" />
          </mxGeometry>
        </mxCell>
        <mxCell id="hGfINej10yP00hQ_XD_E-46" value="" style="endArrow=classic;html=1;rounded=0;fontFamily=Verdana;fontSize=14;edgeStyle=orthogonalEdgeStyle;exitX=-0.006;exitY=0.819;exitDx=0;exitDy=0;exitPerimeter=0;startArrow=none;" edge="1" parent="1" source="hGfINej10yP00hQ_XD_E-76">
          <mxGeometry width="50" height="50" relative="1" as="geometry">
            <mxPoint x="480" y="700" as="sourcePoint" />
            <mxPoint x="10" y="390" as="targetPoint" />
          </mxGeometry>
        </mxCell>
        <mxCell id="hGfINej10yP00hQ_XD_E-53" value="" style="endArrow=classic;html=1;rounded=0;fontFamily=Verdana;fontSize=14;edgeStyle=orthogonalEdgeStyle;" edge="1" parent="1">
          <mxGeometry relative="1" as="geometry">
            <mxPoint x="10" y="395" as="sourcePoint" />
            <mxPoint x="130" y="385" as="targetPoint" />
            <Array as="points">
              <mxPoint x="10" y="385" />
            </Array>
          </mxGeometry>
        </mxCell>
        <mxCell id="hGfINej10yP00hQ_XD_E-56" value="" style="endArrow=classic;html=1;rounded=0;fontFamily=Verdana;fontSize=14;edgeStyle=orthogonalEdgeStyle;" edge="1" parent="1">
          <mxGeometry relative="1" as="geometry">
            <mxPoint x="330" y="304.5" as="sourcePoint" />
            <mxPoint x="550" y="450" as="targetPoint" />
          </mxGeometry>
        </mxCell>
        <mxCell id="hGfINej10yP00hQ_XD_E-57" value="Log Out User&amp;nbsp;&amp;nbsp;" style="edgeLabel;resizable=0;html=1;align=center;verticalAlign=middle;fontFamily=Verdana;fontSize=14;strokeColor=#FFFFFF;" connectable="0" vertex="1" parent="hGfINej10yP00hQ_XD_E-56">
          <mxGeometry relative="1" as="geometry">
            <mxPoint x="-23" y="1" as="offset" />
          </mxGeometry>
        </mxCell>
        <mxCell id="hGfINej10yP00hQ_XD_E-58" value="" style="endArrow=classic;html=1;rounded=0;fontFamily=Verdana;fontSize=14;edgeStyle=orthogonalEdgeStyle;" edge="1" parent="1" target="hGfINej10yP00hQ_XD_E-60">
          <mxGeometry relative="1" as="geometry">
            <mxPoint x="560" y="450" as="sourcePoint" />
            <mxPoint x="750" y="550" as="targetPoint" />
            <Array as="points">
              <mxPoint x="610" y="450" />
              <mxPoint x="610" y="450" />
            </Array>
          </mxGeometry>
        </mxCell>
        <mxCell id="hGfINej10yP00hQ_XD_E-59" value="Log Out User&amp;nbsp;&amp;nbsp;" style="edgeLabel;resizable=0;html=1;align=center;verticalAlign=middle;fontFamily=Verdana;fontSize=14;strokeColor=#FFFFFF;" connectable="0" vertex="1" parent="hGfINej10yP00hQ_XD_E-58">
          <mxGeometry relative="1" as="geometry">
            <mxPoint x="-37" as="offset" />
          </mxGeometry>
        </mxCell>
        <mxCell id="hGfINej10yP00hQ_XD_E-60" value="Text" style="text;html=1;strokeColor=none;fillColor=none;align=center;verticalAlign=middle;whiteSpace=wrap;rounded=0;fontFamily=Verdana;fontSize=14;" vertex="1" parent="1">
          <mxGeometry x="720" y="535" width="60" height="30" as="geometry" />
        </mxCell>
        <mxCell id="hGfINej10yP00hQ_XD_E-61" value="Log Out/Sign In" style="whiteSpace=wrap;html=1;aspect=fixed;fontFamily=Verdana;fontSize=14;strokeColor=#FFFFFF;" vertex="1" parent="1">
          <mxGeometry x="715" y="535" width="80" height="80" as="geometry" />
        </mxCell>
        <mxCell id="hGfINej10yP00hQ_XD_E-62" value="" style="endArrow=classic;html=1;rounded=0;fontFamily=Verdana;fontSize=14;edgeStyle=orthogonalEdgeStyle;" edge="1" parent="1">
          <mxGeometry width="50" height="50" relative="1" as="geometry">
            <mxPoint x="790" y="565" as="sourcePoint" />
            <mxPoint x="820" y="90" as="targetPoint" />
          </mxGeometry>
        </mxCell>
        <mxCell id="hGfINej10yP00hQ_XD_E-63" value="" style="endArrow=classic;html=1;rounded=0;fontFamily=Verdana;fontSize=14;edgeStyle=orthogonalEdgeStyle;" edge="1" parent="1">
          <mxGeometry relative="1" as="geometry">
            <mxPoint x="820" y="90" as="sourcePoint" />
            <mxPoint x="550" y="90" as="targetPoint" />
          </mxGeometry>
        </mxCell>
        <mxCell id="hGfINej10yP00hQ_XD_E-64" value="Sign In" style="edgeLabel;resizable=0;html=1;align=center;verticalAlign=middle;fontFamily=Verdana;fontSize=14;strokeColor=#FFFFFF;" connectable="0" vertex="1" parent="hGfINej10yP00hQ_XD_E-63">
          <mxGeometry relative="1" as="geometry">
            <mxPoint x="-1" as="offset" />
          </mxGeometry>
        </mxCell>
        <mxCell id="hGfINej10yP00hQ_XD_E-67" value="Takes to the API" style="text;html=1;strokeColor=none;fillColor=none;align=center;verticalAlign=middle;whiteSpace=wrap;rounded=0;fontFamily=Verdana;fontSize=14;" vertex="1" parent="1">
          <mxGeometry x="360" y="450" width="60" height="30" as="geometry" />
        </mxCell>
        <mxCell id="hGfINej10yP00hQ_XD_E-68" value="" style="endArrow=none;html=1;rounded=0;fontFamily=Verdana;fontSize=14;edgeStyle=orthogonalEdgeStyle;exitX=1;exitY=0.5;exitDx=0;exitDy=0;" edge="1" parent="1" source="hGfINej10yP00hQ_XD_E-12" target="hGfINej10yP00hQ_XD_E-67">
          <mxGeometry width="50" height="50" relative="1" as="geometry">
            <mxPoint x="230" y="470" as="sourcePoint" />
            <mxPoint x="520" y="505" as="targetPoint" />
            <Array as="points">
              <mxPoint x="330" y="470" />
              <mxPoint x="330" y="470" />
            </Array>
          </mxGeometry>
        </mxCell>
        <mxCell id="hGfINej10yP00hQ_XD_E-74" value="" style="endArrow=classic;html=1;rounded=0;fontFamily=Verdana;fontSize=14;edgeStyle=orthogonalEdgeStyle;entryX=0.921;entryY=-0.018;entryDx=0;entryDy=0;entryPerimeter=0;" edge="1" parent="1" target="JeRUma0UxZ9L4VUVmETL-3">
          <mxGeometry relative="1" as="geometry">
            <mxPoint x="560" y="250" as="sourcePoint" />
            <mxPoint x="340" y="300" as="targetPoint" />
          </mxGeometry>
        </mxCell>
        <mxCell id="hGfINej10yP00hQ_XD_E-75" value="User Come to main Page" style="edgeLabel;resizable=0;html=1;align=center;verticalAlign=middle;fontFamily=Verdana;fontSize=14;strokeColor=#FFFFFF;" connectable="0" vertex="1" parent="hGfINej10yP00hQ_XD_E-74">
          <mxGeometry relative="1" as="geometry" />
        </mxCell>
        <mxCell id="hGfINej10yP00hQ_XD_E-76" value="Adds to List" style="text;html=1;align=center;verticalAlign=middle;resizable=0;points=[];autosize=1;strokeColor=none;fillColor=none;fontSize=14;fontFamily=Verdana;" vertex="1" parent="1">
          <mxGeometry x="90" y="620" width="100" height="20" as="geometry" />
        </mxCell>
        <mxCell id="hGfINej10yP00hQ_XD_E-77" value="" style="endArrow=none;html=1;rounded=0;fontFamily=Verdana;fontSize=14;edgeStyle=orthogonalEdgeStyle;exitX=-0.006;exitY=0.819;exitDx=0;exitDy=0;exitPerimeter=0;" edge="1" parent="1" source="JeRUma0UxZ9L4VUVmETL-4" target="hGfINej10yP00hQ_XD_E-76">
          <mxGeometry width="50" height="50" relative="1" as="geometry">
            <mxPoint x="408.68000000000006" y="636.04" as="sourcePoint" />
            <mxPoint x="10" y="390" as="targetPoint" />
            <Array as="points">
              <mxPoint x="250" y="636" />
              <mxPoint x="250" y="636" />
            </Array>
          </mxGeometry>
        </mxCell>
      </root>
    </mxGraphModel>
  </diagram>
</mxfile>
